<?xml version="1.0" encoding="UTF-8"?>
<svg id="Layer_1" data-name="Layer 1" xmlns="http://www.w3.org/2000/svg" viewBox="0 0 300 114.26">
  <defs>
    <style>
      .cls-1 {
        fill: #fff;
      }

      .cls-2 {
        fill: #98c766;
      }
    </style>
  </defs>
  <g>
    <path class="cls-2" d="M19.89,75.54c1.32,7.89,5.19,11.61,12.02,12.18,8.89,.75,14.85-1.75,16.36-8.16,1.11-4.73,3.78-5.43,7.58-5.47,1.92-.02,3.85-.06,5.72-.09,1.67,12.65-9.13,25.56-21.41,26-3.75,.13-7.55,.53-11.25,.15-11.97-1.25-21.46-12.37-23.98-26.52-1.61-9.03,.72-16.81,5.32-24.24,6.78-10.94,18.96-15.7,31.43-12.39,12.24,3.25,20.89,13.9,21.64,26.35,.2,3.31-1.85,3.76-4.18,4.24-10.75,2.22-21.5,4.44-32.25,6.65-2.23,.46-4.47,.84-7,1.32Zm-1.54-12.4c2.12-.3,3.69-.47,5.24-.76,7.96-1.47,15.92-2.98,24.02-4.49-1.99-6.01-8.52-9.88-14.75-9.67-6.25,.22-12.01,5.91-14.51,14.91Z"/>
    <path class="cls-2" d="M81.34,97.73h-14.87c0-10.29-.15-20.43,.04-30.57,.29-15.47,1.22-30.95,1.08-46.41-.08-8.9-.78-8.9,9.41-9.16,1.53-.04,3.07,0,5.53,0V50.87c8.24-7.14,15.18-13.15,22.32-19.34,3.78,3.33,7.09,6.25,10.85,9.56-3.95,3.49-7.3,6.9-11.17,9.73-3.73,2.73-4.1,5.1-1.8,8.98,5.77,9.75,10.79,19.85,16.39,29.68,1.96,3.43,1.01,5.13-2.74,6.34-2.93,.94-5.77,2.12-8.91,3.3-5.82-11.14-11.59-22.17-17.52-33.51-6.19,3.13-9.09,6.37-8.72,11.94,.44,6.61,.1,13.27,.1,20.19Z"/>
    <path class="cls-2" d="M217.94,81.96c1.55,3.95,2.97,7.56,4.36,11.1-10.67,7.92-24.86,3.42-26.82-9.6-1.84-12.2-.71-24.85-.83-37.3-.01-1.54,.34-3.08,.62-5.38-2.78-.34-5.36-.65-8.2-.99,.18-4.7,.34-9.07,.51-13.7,2.89-.08,5.35-.16,8.22-.24,.17-4.46,.32-8.65,.5-13.38,4.6-.3,8.81-.58,13.58-.89,.43,5.24,.81,10.04,1.24,15.21,2.47,.58,5.05,1.19,7.51,1.77-.17,4.63-.34,9.03-.51,13.56-3.06,.1-5.55,.17-9.62,.3,.1,12.18-.1,24.2,.47,36.17,.21,4.43,1.51,4.59,8.97,3.38Z"/>
    <path class="cls-2" d="M259.32,93.35c-7.65,3.19-15.04,5.61-23.53,3.71-8.93-2.01-15.86-13.74-12.72-22.29,5.12-13.95,13.18-17.2,27.94-17.82,3.53-.15,7.07-.02,10.65-.02-.39-4-6.41-11.51-9.42-12.2-6.01-1.39-12.23,.78-14.47,5.79-1.53,3.42-3.31,3.7-6.36,2.52-2.33-.9-4.83-1.35-7.2-1.98,2.16-11.14,7.94-16.93,18.22-18.68,13.87-2.36,25.37,2.71,30.96,15.45,4.09,9.32,2.23,19.56,.48,29.4-.42,2.34-1.13,4.63-.34,6.42,2.25,4.18,4.49,8.35,6.74,12.53-8.16,4.68-14.86,3.79-20.95-2.83Zm1.99-24c-7.04,.89-13.6,1.37-19.99,2.67-3.88,.79-6.43,6.03-5.05,9.2,1.85,4.23,5.72,4.01,9.21,3.11,3.44-.89,6.65-2.66,10-3.94,4.24-1.63,5.9-4.81,5.84-11.05Z"/>
    <g>
      <path class="cls-2" d="M171.13,75.61c-2.73,8.72-8.71,11.96-19.8,11.33-5.35-.29-9.7-2.92-12.36-7.31l7.74-1.03-4.64-2.78-5.69-3.39c-.01-.06-.03-.12-.04-.19l-15.02-9.41c-.02,.2-.02,.4-.02,.6l-.08-.06,.09,.13s-.01,.02-.01,.04v.03s.01,0,.01,0l-.1-.21-2.01,19.61,4.96-1.2c2.76,8.16,8.07,14.65,18.65,16.99,7.3,1.62,15.44,1,22.93-.24,4.58-.76,9.79-3.68,12.71-7.27,5.17-6.38,7.89-13.84,8.52-22.34l-13.47-5.56c-.75,4.1-1.13,8.32-2.37,12.27Z"/>
      <path class="cls-2" d="M192.2,48.06l-7.12,.47s0,0,0,0c-2.19-6.23-6.36-11.73-12.56-15.94-4.49-3.03-10.12-6.07-15.23-6.05-5.73,0-11.62,3.05-17.12,5.5-8.39,3.74-15.87,8.81-17.61,18.79-.58,3.33-1.14,6.74-1.29,10.11l14.4,5.94c-.14-1.04-.24-2.09-.26-3.14-.44-17.1,5.89-19.12,20.57-23.22,4.8-1.34,10.8,3.37,14.15,9.51l-8.73,1.18,4.64,2.77h.01s.31,.2,.31,.2l6.27,3.74c.01,.07,.02,.13,0,.2l14.24,8.92h0s0,0,0,0h0s.05,.04,.05,.04c0-.09,.02-.17,.01-.25h0s0-.02,0-.02l5.26-18.74Z"/>
    </g>
  </g>
  <g>
    <path class="cls-1" d="M288.09,26.88c.25-.11,.48-.26,.66-.43,.19-.18,.33-.39,.43-.63,.1-.24,.15-.5,.15-.78,0-.65-.22-1.15-.66-1.49-.42-.32-1.03-.49-1.82-.49h-1.93v6.88h1.16v-2.79h.45c.09,0,.12,0,.14,.04l1.97,2.5c.07,.09,.14,.15,.21,.18,.09,.05,.19,.07,.3,.07h1.13l-2.37-2.98c.07-.02,.13-.05,.2-.08Zm-.67-.86c-.19,.05-.4,.08-.63,.08h-.72v-1.98h.77c.47,0,.82,.08,1.04,.25,.19,.14,.29,.37,.29,.69,0,.16-.03,.31-.09,.43-.06,.12-.13,.22-.25,.31-.11,.09-.25,.16-.42,.22Z"/>
    <path class="cls-1" d="M287.06,19.74c-3.75,0-6.79,3.05-6.79,6.79s3.05,6.79,6.79,6.79,6.79-3.05,6.79-6.79-3.05-6.79-6.79-6.79Zm0,12.51c-3.15,0-5.72-2.57-5.72-5.72s2.57-5.72,5.72-5.72,5.72,2.57,5.72,5.72-2.57,5.72-5.72,5.72Z"/>
  </g>
</svg>